<mxfile host="www.draw.io" modified="2020-02-16T03:02:58.354Z" agent="Mozilla/5.0 (Windows NT 10.0; Win64; x64) AppleWebKit/537.36 (KHTML, like Gecko) Chrome/79.0.3945.130 Safari/537.36" etag="0TxYV7uKsgkXijWZi6zd" version="12.7.0" type="github">
  <diagram id="g8YreM0hBuEBGL91o7nB" name="Page-1">
    <mxGraphModel dx="1952" dy="614" grid="1" gridSize="10" guides="1" tooltips="1" connect="1" arrows="1" fold="1" page="1" pageScale="1" pageWidth="850" pageHeight="1100" math="0" shadow="0">
      <root>
        <mxCell id="0"/>
        <mxCell id="1" parent="0"/>
        <mxCell id="knCNbC4QlPTW4irUIRz2-1" value="9.0&lt;br&gt;Schedule shift" style="whiteSpace=wrap;html=1;aspect=fixed;" parent="1" vertex="1">
          <mxGeometry x="360" y="80" width="80" height="80" as="geometry"/>
        </mxCell>
        <mxCell id="knCNbC4QlPTW4irUIRz2-3" value="9.1&lt;br&gt;Query database" style="whiteSpace=wrap;html=1;aspect=fixed;" parent="1" vertex="1">
          <mxGeometry y="320" width="80" height="80" as="geometry"/>
        </mxCell>
        <mxCell id="knCNbC4QlPTW4irUIRz2-4" value="9.2&lt;br&gt;Make shift" style="whiteSpace=wrap;html=1;aspect=fixed;" parent="1" vertex="1">
          <mxGeometry x="400" y="320" width="80" height="80" as="geometry"/>
        </mxCell>
        <mxCell id="knCNbC4QlPTW4irUIRz2-7" value="" style="endArrow=classic;html=1;exitX=0;exitY=1;exitDx=0;exitDy=0;entryX=0.5;entryY=0;entryDx=0;entryDy=0;strokeWidth=2;" parent="1" source="knCNbC4QlPTW4irUIRz2-1" target="knCNbC4QlPTW4irUIRz2-3" edge="1">
          <mxGeometry width="50" height="50" relative="1" as="geometry">
            <mxPoint x="410" y="290" as="sourcePoint"/>
            <mxPoint x="460" y="240" as="targetPoint"/>
          </mxGeometry>
        </mxCell>
        <mxCell id="knCNbC4QlPTW4irUIRz2-8" value="" style="endArrow=classic;html=1;strokeWidth=1;" parent="1" source="knCNbC4QlPTW4irUIRz2-9" edge="1">
          <mxGeometry width="50" height="50" relative="1" as="geometry">
            <mxPoint x="55" y="490" as="sourcePoint"/>
            <mxPoint x="75" y="520" as="targetPoint"/>
          </mxGeometry>
        </mxCell>
        <mxCell id="knCNbC4QlPTW4irUIRz2-10" value="Form variables" style="text;html=1;strokeColor=none;fillColor=none;align=center;verticalAlign=middle;whiteSpace=wrap;rounded=0;" parent="1" vertex="1">
          <mxGeometry x="35" y="520" width="40" height="20" as="geometry"/>
        </mxCell>
        <mxCell id="knCNbC4QlPTW4irUIRz2-11" value="" style="endArrow=classic;html=1;strokeWidth=1;" parent="1" edge="1">
          <mxGeometry width="50" height="50" relative="1" as="geometry">
            <mxPoint x="-40" y="480" as="sourcePoint"/>
            <mxPoint x="-20" y="450" as="targetPoint"/>
          </mxGeometry>
        </mxCell>
        <mxCell id="knCNbC4QlPTW4irUIRz2-12" value="" style="ellipse;whiteSpace=wrap;html=1;aspect=fixed;" parent="1" vertex="1">
          <mxGeometry x="-50" y="480" width="10" height="10" as="geometry"/>
        </mxCell>
        <mxCell id="knCNbC4QlPTW4irUIRz2-13" value="Database connection object" style="text;html=1;strokeColor=none;fillColor=none;align=center;verticalAlign=middle;whiteSpace=wrap;rounded=0;" parent="1" vertex="1">
          <mxGeometry x="-20" y="475" width="40" height="20" as="geometry"/>
        </mxCell>
        <mxCell id="knCNbC4QlPTW4irUIRz2-15" value="9.1.1&lt;br&gt;Connect to database" style="shape=process;whiteSpace=wrap;html=1;backgroundOutline=1;" parent="1" vertex="1">
          <mxGeometry x="-160" y="550" width="120" height="60" as="geometry"/>
        </mxCell>
        <mxCell id="knCNbC4QlPTW4irUIRz2-16" value="" style="endArrow=classic;html=1;strokeWidth=2;entryX=0.5;entryY=0;entryDx=0;entryDy=0;exitX=0;exitY=1;exitDx=0;exitDy=0;" parent="1" source="knCNbC4QlPTW4irUIRz2-3" target="knCNbC4QlPTW4irUIRz2-15" edge="1">
          <mxGeometry width="50" height="50" relative="1" as="geometry">
            <mxPoint x="-40" y="480" as="sourcePoint"/>
            <mxPoint x="10" y="430" as="targetPoint"/>
          </mxGeometry>
        </mxCell>
        <mxCell id="knCNbC4QlPTW4irUIRz2-20" value="" style="endArrow=classic;html=1;strokeWidth=2;entryX=0.5;entryY=0;entryDx=0;entryDy=0;exitX=0.25;exitY=1;exitDx=0;exitDy=0;" parent="1" source="knCNbC4QlPTW4irUIRz2-3" target="knCNbC4QlPTW4irUIRz2-46" edge="1">
          <mxGeometry width="50" height="50" relative="1" as="geometry">
            <mxPoint x="270" y="520" as="sourcePoint"/>
            <mxPoint x="120" y="530" as="targetPoint"/>
            <Array as="points">
              <mxPoint x="80" y="490"/>
            </Array>
          </mxGeometry>
        </mxCell>
        <mxCell id="knCNbC4QlPTW4irUIRz2-22" value="" style="endArrow=classic;html=1;strokeWidth=1;" parent="1" edge="1">
          <mxGeometry width="50" height="50" relative="1" as="geometry">
            <mxPoint x="-70" y="470" as="sourcePoint"/>
            <mxPoint x="-90" y="500" as="targetPoint"/>
          </mxGeometry>
        </mxCell>
        <mxCell id="knCNbC4QlPTW4irUIRz2-25" value="" style="ellipse;whiteSpace=wrap;html=1;aspect=fixed;fillColor=#000000;" parent="1" vertex="1">
          <mxGeometry x="630" y="240" width="10" height="10" as="geometry"/>
        </mxCell>
        <mxCell id="knCNbC4QlPTW4irUIRz2-26" value="" style="ellipse;whiteSpace=wrap;html=1;aspect=fixed;" parent="1" vertex="1">
          <mxGeometry x="570" y="250" width="10" height="10" as="geometry"/>
        </mxCell>
        <mxCell id="knCNbC4QlPTW4irUIRz2-27" value="" style="ellipse;whiteSpace=wrap;html=1;aspect=fixed;" parent="1" vertex="1">
          <mxGeometry x="560" y="485" width="10" height="10" as="geometry"/>
        </mxCell>
        <mxCell id="knCNbC4QlPTW4irUIRz2-28" value="" style="ellipse;whiteSpace=wrap;html=1;aspect=fixed;fillColor=#FFFFFF;" parent="1" vertex="1">
          <mxGeometry x="610" y="485" width="10" height="10" as="geometry"/>
        </mxCell>
        <mxCell id="knCNbC4QlPTW4irUIRz2-29" value="" style="ellipse;whiteSpace=wrap;html=1;aspect=fixed;fillColor=#000000;" parent="1" vertex="1">
          <mxGeometry x="410" y="470" width="10" height="10" as="geometry"/>
        </mxCell>
        <mxCell id="knCNbC4QlPTW4irUIRz2-30" value="" style="ellipse;whiteSpace=wrap;html=1;aspect=fixed;" parent="1" vertex="1">
          <mxGeometry x="380" y="430" width="10" height="10" as="geometry"/>
        </mxCell>
        <mxCell id="knCNbC4QlPTW4irUIRz2-31" value="" style="ellipse;whiteSpace=wrap;html=1;aspect=fixed;" parent="1" vertex="1">
          <mxGeometry x="250" y="490" width="10" height="10" as="geometry"/>
        </mxCell>
        <mxCell id="knCNbC4QlPTW4irUIRz2-32" value="" style="ellipse;whiteSpace=wrap;html=1;aspect=fixed;" parent="1" vertex="1">
          <mxGeometry x="190" y="495" width="10" height="10" as="geometry"/>
        </mxCell>
        <mxCell id="knCNbC4QlPTW4irUIRz2-33" value="" style="ellipse;whiteSpace=wrap;html=1;aspect=fixed;" parent="1" vertex="1">
          <mxGeometry x="100" y="480" width="10" height="10" as="geometry"/>
        </mxCell>
        <mxCell id="knCNbC4QlPTW4irUIRz2-34" value="" style="ellipse;whiteSpace=wrap;html=1;aspect=fixed;" parent="1" vertex="1">
          <mxGeometry x="-70" y="460" width="10" height="10" as="geometry"/>
        </mxCell>
        <mxCell id="knCNbC4QlPTW4irUIRz2-35" value="Database credentials" style="text;html=1;strokeColor=none;fillColor=none;align=center;verticalAlign=middle;whiteSpace=wrap;rounded=0;" parent="1" vertex="1">
          <mxGeometry x="-135" y="450" width="40" height="20" as="geometry"/>
        </mxCell>
        <mxCell id="knCNbC4QlPTW4irUIRz2-36" value="" style="endArrow=classic;html=1;strokeWidth=1;" parent="1" edge="1">
          <mxGeometry width="50" height="50" relative="1" as="geometry">
            <mxPoint x="100" y="480" as="sourcePoint"/>
            <mxPoint x="80" y="450" as="targetPoint"/>
          </mxGeometry>
        </mxCell>
        <mxCell id="knCNbC4QlPTW4irUIRz2-39" value="Prepared statement" style="text;html=1;strokeColor=none;fillColor=none;align=center;verticalAlign=middle;whiteSpace=wrap;rounded=0;" parent="1" vertex="1">
          <mxGeometry x="110" y="455" width="40" height="20" as="geometry"/>
        </mxCell>
        <mxCell id="knCNbC4QlPTW4irUIRz2-40" value="" style="endArrow=classic;html=1;strokeWidth=2;exitX=1;exitY=1;exitDx=0;exitDy=0;entryX=0.5;entryY=0;entryDx=0;entryDy=0;" parent="1" source="knCNbC4QlPTW4irUIRz2-3" target="O3DAFxywaz7zmf8wwd_v-1" edge="1">
          <mxGeometry width="50" height="50" relative="1" as="geometry">
            <mxPoint x="200" y="450" as="sourcePoint"/>
            <mxPoint x="280" y="530" as="targetPoint"/>
          </mxGeometry>
        </mxCell>
        <mxCell id="knCNbC4QlPTW4irUIRz2-41" value="" style="endArrow=classic;html=1;strokeWidth=1;" parent="1" edge="1">
          <mxGeometry width="50" height="50" relative="1" as="geometry">
            <mxPoint x="200" y="500" as="sourcePoint"/>
            <mxPoint x="240" y="520" as="targetPoint"/>
          </mxGeometry>
        </mxCell>
        <mxCell id="knCNbC4QlPTW4irUIRz2-42" value="" style="endArrow=classic;html=1;strokeWidth=1;" parent="1" edge="1">
          <mxGeometry width="50" height="50" relative="1" as="geometry">
            <mxPoint x="250" y="490" as="sourcePoint"/>
            <mxPoint x="220" y="470" as="targetPoint"/>
          </mxGeometry>
        </mxCell>
        <mxCell id="knCNbC4QlPTW4irUIRz2-43" value="Prepared statement" style="text;html=1;strokeColor=none;fillColor=none;align=center;verticalAlign=middle;whiteSpace=wrap;rounded=0;" parent="1" vertex="1">
          <mxGeometry x="175" y="520" width="40" height="20" as="geometry"/>
        </mxCell>
        <mxCell id="knCNbC4QlPTW4irUIRz2-44" value="Query object" style="text;html=1;strokeColor=none;fillColor=none;align=center;verticalAlign=middle;whiteSpace=wrap;rounded=0;" parent="1" vertex="1">
          <mxGeometry x="240" y="455" width="40" height="20" as="geometry"/>
        </mxCell>
        <mxCell id="knCNbC4QlPTW4irUIRz2-46" value="9.1.2&lt;br&gt;Prepare statement" style="shape=process;whiteSpace=wrap;html=1;backgroundOutline=1;" parent="1" vertex="1">
          <mxGeometry x="60" y="550" width="120" height="60" as="geometry"/>
        </mxCell>
        <mxCell id="knCNbC4QlPTW4irUIRz2-9" value="" style="ellipse;whiteSpace=wrap;html=1;aspect=fixed;" parent="1" vertex="1">
          <mxGeometry x="50" y="485" width="10" height="10" as="geometry"/>
        </mxCell>
        <mxCell id="knCNbC4QlPTW4irUIRz2-50" value="" style="endArrow=classic;html=1;strokeWidth=1;" parent="1" target="knCNbC4QlPTW4irUIRz2-9" edge="1">
          <mxGeometry width="50" height="50" relative="1" as="geometry">
            <mxPoint x="55" y="490" as="sourcePoint"/>
            <mxPoint x="75" y="520" as="targetPoint"/>
          </mxGeometry>
        </mxCell>
        <mxCell id="knCNbC4QlPTW4irUIRz2-51" value="" style="endArrow=classic;html=1;strokeWidth=2;entryX=0.5;entryY=0;entryDx=0;entryDy=0;exitX=0;exitY=1;exitDx=0;exitDy=0;" parent="1" source="knCNbC4QlPTW4irUIRz2-4" target="knCNbC4QlPTW4irUIRz2-65" edge="1">
          <mxGeometry width="50" height="50" relative="1" as="geometry">
            <mxPoint x="490" y="500" as="sourcePoint"/>
            <mxPoint x="420" y="540" as="targetPoint"/>
          </mxGeometry>
        </mxCell>
        <mxCell id="knCNbC4QlPTW4irUIRz2-52" value="" style="endArrow=classic;html=1;strokeWidth=1;" parent="1" edge="1">
          <mxGeometry width="50" height="50" relative="1" as="geometry">
            <mxPoint x="384.5" y="440" as="sourcePoint"/>
            <mxPoint x="384.5" y="470" as="targetPoint"/>
          </mxGeometry>
        </mxCell>
        <mxCell id="knCNbC4QlPTW4irUIRz2-53" value="" style="endArrow=classic;html=1;strokeWidth=1;" parent="1" edge="1">
          <mxGeometry width="50" height="50" relative="1" as="geometry">
            <mxPoint x="414.5" y="470" as="sourcePoint"/>
            <mxPoint x="414.5" y="440" as="targetPoint"/>
          </mxGeometry>
        </mxCell>
        <mxCell id="knCNbC4QlPTW4irUIRz2-54" value="Shift specifications" style="text;html=1;strokeColor=none;fillColor=none;align=center;verticalAlign=middle;whiteSpace=wrap;rounded=0;" parent="1" vertex="1">
          <mxGeometry x="320" y="440" width="40" height="20" as="geometry"/>
        </mxCell>
        <mxCell id="knCNbC4QlPTW4irUIRz2-56" value="" style="endArrow=classic;html=1;strokeWidth=2;entryX=0.5;entryY=0;entryDx=0;entryDy=0;exitX=0.75;exitY=1;exitDx=0;exitDy=0;" parent="1" source="knCNbC4QlPTW4irUIRz2-1" target="knCNbC4QlPTW4irUIRz2-4" edge="1">
          <mxGeometry width="50" height="50" relative="1" as="geometry">
            <mxPoint x="430" y="260" as="sourcePoint"/>
            <mxPoint x="480" y="210" as="targetPoint"/>
          </mxGeometry>
        </mxCell>
        <mxCell id="knCNbC4QlPTW4irUIRz2-57" value="Prepared statement" style="text;html=1;strokeColor=none;fillColor=none;align=center;verticalAlign=middle;whiteSpace=wrap;rounded=0;" parent="1" vertex="1">
          <mxGeometry x="630" y="460" width="40" height="20" as="geometry"/>
        </mxCell>
        <mxCell id="knCNbC4QlPTW4irUIRz2-58" value="9.3&lt;br&gt;Commit to database" style="whiteSpace=wrap;html=1;aspect=fixed;" parent="1" vertex="1">
          <mxGeometry x="680" y="320" width="80" height="80" as="geometry"/>
        </mxCell>
        <mxCell id="knCNbC4QlPTW4irUIRz2-59" value="" style="endArrow=classic;html=1;strokeWidth=2;entryX=0.5;entryY=0;entryDx=0;entryDy=0;exitX=1;exitY=1;exitDx=0;exitDy=0;" parent="1" source="knCNbC4QlPTW4irUIRz2-1" target="knCNbC4QlPTW4irUIRz2-58" edge="1">
          <mxGeometry width="50" height="50" relative="1" as="geometry">
            <mxPoint x="600" y="240" as="sourcePoint"/>
            <mxPoint x="650" y="190" as="targetPoint"/>
          </mxGeometry>
        </mxCell>
        <mxCell id="knCNbC4QlPTW4irUIRz2-60" value="" style="endArrow=classic;html=1;strokeWidth=2;exitX=1;exitY=1;exitDx=0;exitDy=0;entryX=0.5;entryY=0;entryDx=0;entryDy=0;" parent="1" source="knCNbC4QlPTW4irUIRz2-4" target="knCNbC4QlPTW4irUIRz2-64" edge="1">
          <mxGeometry width="50" height="50" relative="1" as="geometry">
            <mxPoint x="600" y="470" as="sourcePoint"/>
            <mxPoint x="640" y="530" as="targetPoint"/>
          </mxGeometry>
        </mxCell>
        <mxCell id="knCNbC4QlPTW4irUIRz2-61" value="" style="endArrow=classic;html=1;strokeWidth=1;" parent="1" edge="1">
          <mxGeometry width="50" height="50" relative="1" as="geometry">
            <mxPoint x="610" y="485" as="sourcePoint"/>
            <mxPoint x="580" y="455" as="targetPoint"/>
          </mxGeometry>
        </mxCell>
        <mxCell id="knCNbC4QlPTW4irUIRz2-62" value="" style="endArrow=classic;html=1;strokeWidth=1;" parent="1" edge="1">
          <mxGeometry width="50" height="50" relative="1" as="geometry">
            <mxPoint x="565" y="495" as="sourcePoint"/>
            <mxPoint x="585" y="515" as="targetPoint"/>
          </mxGeometry>
        </mxCell>
        <mxCell id="knCNbC4QlPTW4irUIRz2-64" value="9.2.1&lt;br&gt;Prepare statement" style="shape=process;whiteSpace=wrap;html=1;backgroundOutline=1;" parent="1" vertex="1">
          <mxGeometry x="590" y="550" width="120" height="60" as="geometry"/>
        </mxCell>
        <mxCell id="knCNbC4QlPTW4irUIRz2-65" value="9.2.2&lt;br&gt;Display shift details" style="whiteSpace=wrap;html=1;aspect=fixed;" parent="1" vertex="1">
          <mxGeometry x="360" y="530" width="80" height="80" as="geometry"/>
        </mxCell>
        <mxCell id="knCNbC4QlPTW4irUIRz2-68" value="Shift details" style="text;html=1;strokeColor=none;fillColor=none;align=center;verticalAlign=middle;whiteSpace=wrap;rounded=0;" parent="1" vertex="1">
          <mxGeometry x="420" y="455" width="40" height="20" as="geometry"/>
        </mxCell>
        <mxCell id="knCNbC4QlPTW4irUIRz2-69" value="Shift specifications" style="text;html=1;strokeColor=none;fillColor=none;align=center;verticalAlign=middle;whiteSpace=wrap;rounded=0;" parent="1" vertex="1">
          <mxGeometry x="520" y="505" width="40" height="20" as="geometry"/>
        </mxCell>
        <mxCell id="knCNbC4QlPTW4irUIRz2-71" value="" style="endArrow=classic;html=1;strokeWidth=1;" parent="1" edge="1">
          <mxGeometry width="50" height="50" relative="1" as="geometry">
            <mxPoint x="580" y="260" as="sourcePoint"/>
            <mxPoint x="630" y="290" as="targetPoint"/>
          </mxGeometry>
        </mxCell>
        <mxCell id="knCNbC4QlPTW4irUIRz2-72" value="" style="endArrow=classic;html=1;strokeWidth=1;" parent="1" edge="1">
          <mxGeometry width="50" height="50" relative="1" as="geometry">
            <mxPoint x="630" y="240" as="sourcePoint"/>
            <mxPoint x="580" y="210" as="targetPoint"/>
          </mxGeometry>
        </mxCell>
        <mxCell id="knCNbC4QlPTW4irUIRz2-73" value="Prepared statement" style="text;html=1;strokeColor=none;fillColor=none;align=center;verticalAlign=middle;whiteSpace=wrap;rounded=0;" parent="1" vertex="1">
          <mxGeometry x="560" y="280" width="40" height="20" as="geometry"/>
        </mxCell>
        <mxCell id="knCNbC4QlPTW4irUIRz2-74" value="Success message" style="text;html=1;strokeColor=none;fillColor=none;align=center;verticalAlign=middle;whiteSpace=wrap;rounded=0;" parent="1" vertex="1">
          <mxGeometry x="630" y="210" width="40" height="20" as="geometry"/>
        </mxCell>
        <mxCell id="O3DAFxywaz7zmf8wwd_v-1" value="&lt;span style=&quot;white-space: normal&quot;&gt;9.1.3&lt;/span&gt;&lt;br style=&quot;white-space: normal&quot;&gt;&lt;span style=&quot;white-space: normal&quot;&gt;Execute statement&lt;/span&gt;" style="shape=process;whiteSpace=wrap;html=1;backgroundOutline=1;fillColor=#FFFFFF;" parent="1" vertex="1">
          <mxGeometry x="240" y="550" width="120" height="60" as="geometry"/>
        </mxCell>
      </root>
    </mxGraphModel>
  </diagram>
</mxfile>
